<svg width="100%" height="100%" viewBox="0 0 725 59" version="1.1" xmlns="http://www.w3.org/2000/svg" xmlns:xlink="http://www.w3.org/1999/xlink" xml:space="preserve" xmlns:serif="http://www.serif.com/" style="fill-rule:evenodd;clip-rule:evenodd;stroke-linecap:square;stroke-linejoin:round;stroke-miterlimit:2.22561;"><path d="M12.71,25.633c0.491,2.05 -0.574,9.606 -0.065,11.657c1.912,7.698 11.305,10.195 17.977,7.613c8.776,-3.398 13.907,-11.99 20.388,-18.141c4.633,-4.398 11.128,-10.242 18.315,-8.373c6.781,1.764 8.67,9.877 11.026,15.208c1.319,2.985 3.243,10.19 8.396,8.667c12.59,-3.722 21.621,-14.085 31.991,-21.339c4.28,-2.995 10.36,-5.967 15.724,-3.783c11.052,4.5 10.831,21.965 22.595,25.012c6.768,1.754 16.681,-1.224 20.072,-7.738c2.175,-4.177 5.731,-19.085 13.865,-19.277c5.41,-0.128 10.455,5.112 13.779,8.658c8.537,9.105 17.237,23.285 32.004,18.614c7.981,-2.525 11.929,-11.112 17.682,-16.259c6.949,-6.215 12.33,-8.964 21.643,-10.127c5.647,-0.705 12.642,0.463 16.117,5.525c4.262,6.206 9.175,20.792 19.803,18.939c6.91,-1.206 9.659,-1.99 14.708,-7.068c5.989,-6.022 10.69,-16.312 20.412,-17.495c8.114,-0.987 12.412,8.207 16.572,12.996c6.71,7.724 16.054,14.401 26.74,14.266c17.2,-0.218 15.291,-27.757 32.607,-27.694c6.825,0.025 14.787,1.084 19.711,6.45c6.775,7.383 12.834,19.543 24.485,20.467c9.524,0.756 13.272,-10.723 17.936,-16.219c5.745,-6.772 10.332,-9.966 18.85,-12.583c2.42,-0.743 5.023,-0.912 7.553,-0.802c18.122,0.788 15.36,26.745 30.61,32.264c5.325,1.927 10.486,-3.04 12.64,-7.277c3.516,-6.916 3.55,-19.343 13.164,-21.957c4.202,-1.142 8.936,0.605 11.544,4.03c5.321,6.988 7.275,16.983 15.102,22.076c4.618,3.004 9.601,-2.367 12.177,-5.243c7.116,-7.944 12.95,-18.518 23.383,-22.856c8.074,-3.356 19.226,-0.35 22.578,8.334c1.744,4.52 0.226,13.105 6.638,15.039c2.352,0.709 4.876,0.686 7.332,0.737c10.61,0.218 15.425,-13.006 20.301,-19.681c3.611,-4.944 10.956,-6.593 16.331,-3.656c2.488,1.36 4.777,3.073 7.008,4.823" style="fill:none;stroke:currentColor;stroke-width:17.68px;"/></svg>