<svg
  role="img"
  aria-label="Go to github profile"
  width="56px"
  viewBox="0 0 448 512"
  version="1.1"
  xmlns="http://www.w3.org/2000/svg"
  xmlns:xlink="http://www.w3.org/1999/xlink"
  xml:space="preserve"
  xmlns:serif="http://www.serif.com/"
  style="fill-rule:evenodd;clip-rule:evenodd;stroke-linejoin:round;stroke-miterlimit:2;"
>
  <title>Github icon</title>
  <desc>Go to github profile</desc>
  <path
    d="M404.1,32l-360.2,0c-24.2,0 -43.84,19.59 -43.9,43.8l-0,360.4c0.06,24.21 19.7,43.8 43.9,43.8l360.2,-0c24.21,-0 43.84,-19.59 43.9,-43.8l-0,-360.4c-0.06,-24.21 -19.7,-43.8 -43.9,-43.8Zm-37.236,168.141l-135.738,-90.492c-4.633,-2.851 -9.578,-2.877 -14.253,-0l-135.738,90.492c-3.481,2.32 -5.635,6.464 -5.635,10.607l-0,90.491c-0,4.144 2.154,8.287 5.635,10.607l135.738,90.505c4.634,2.851 9.578,2.877 14.254,0l135.738,-90.505c3.48,-2.319 5.635,-6.463 5.635,-10.607l0,-90.491c-0.001,-4.143 -2.155,-8.287 -5.636,-10.607Zm-155.626,167.725l-99.939,-66.626l44.583,-29.833l55.356,36.959l0,59.5Zm25.523,0l0,-59.5l55.357,-36.959l44.583,29.833l-99.94,66.626Zm-12.761,-81.708l-45.081,-30.164l45.081,-30.164l45.08,30.164l-45.08,30.164Zm-122.977,-51.544l31.988,21.38l-31.988,21.38l0,-42.76Zm245.953,42.76l-31.987,-21.38l31.987,-21.38l0,42.76Zm-110.215,-133.253l99.94,66.627l-44.583,29.832l-55.357,-36.959l0,-59.5Zm-25.523,0l0,59.5l-55.356,36.959l-44.583,-29.832l99.939,-66.627Z"
    style="fill:currentColor; fill-rule: evenodd;"
  />
</svg>
